<svg xmlns="http://www.w3.org/2000/svg" width="32" height="32" viewBox="0 0 32 32" fill="none">
  <!-- Dark background circle -->
  <circle cx="16" cy="16" r="16" fill="#1A2B1F"/>
  <!-- Spiral/ear path -->
  <path d="M16 5 C10 5 6 10 6 16 C6 22 10 28 15 29.5 C15.8 29.8 16.8 29.5 17 28.8 C17.3 28 16.5 27.3 16 27 C12.5 25.5 9 22 9 16 C9 10.5 12 8 16 8 C20 8 23 11 23 14.5 C23 16.5 21.8 18.2 20.2 19"
        stroke="rgba(245,240,232,0.85)" stroke-width="1.2" stroke-linecap="round" fill="none"/>
  <!-- Inner arc -->
  <path d="M16 11 C14 11 13 13 13 15 C13 17 14 19 16 19.5"
        stroke="rgba(245,240,232,0.25)" stroke-width="0.8" stroke-linecap="round" fill="none"/>
  <!-- Gold dot outer -->
  <circle cx="16" cy="16" r="2.5" fill="#C4A35A"/>
  <!-- Gold dot inner highlight -->
  <circle cx="16" cy="16" r="1.1" fill="#E8C878"/>
</svg>
